<svg xmlns="http://www.w3.org/2000/svg" width="800" height="800" viewBox="0 0 800 800">
  <!-- Background fill for visibility testing -->
  <rect width="800" height="800" fill="none"/>
  
  <!-- Outer border -->
  <circle cx="400" cy="400" r="380" fill="none" stroke="#A97808" stroke-width="0.8" opacity="0.3"/>
  <circle cx="400" cy="400" r="365" fill="none" stroke="#D9A928" stroke-width="0.5" opacity="0.25"/>

  <!-- 16-fold lotus petals -->
  <g fill="none" stroke="#6F1028" stroke-width="0.7" opacity="0.2">
    <path d="M400 50 C425 90 445 110 400 130 C355 110 375 90 400 50"/>
    <path d="M525 110 C542 145 558 165 518 175 C498 155 510 135 525 110"/>
    <path d="M640 215 C657 250 668 275 633 282 C617 262 628 242 640 215"/>
    <path d="M705 345 C715 380 720 405 685 408 C675 388 690 372 705 345"/>
    <path d="M705 455 C715 420 720 395 685 392 C675 412 690 428 705 455"/>
    <path d="M640 585 C657 550 668 525 633 518 C617 538 628 558 640 585"/>
    <path d="M525 690 C542 655 558 635 518 625 C498 645 510 665 525 690"/>
    <path d="M400 750 C425 710 445 690 400 670 C355 690 375 710 400 750"/>
    <path d="M275 690 C258 655 242 635 282 625 C302 645 290 665 275 690"/>
    <path d="M160 585 C143 550 132 525 167 518 C183 538 172 558 160 585"/>
    <path d="M95 455 C85 420 80 395 115 392 C125 412 110 428 95 455"/>
    <path d="M95 345 C85 380 80 405 115 408 C125 388 110 372 95 345"/>
    <path d="M160 215 C143 250 132 275 167 282 C183 262 172 242 160 215"/>
    <path d="M275 110 C258 145 242 165 282 175 C302 155 290 135 275 110"/>
  </g>

  <!-- Inner petal ring -->
  <g fill="none" stroke="#D9A928" stroke-width="0.6" opacity="0.2">
    <path d="M400 95 C418 125 428 142 400 150 C372 142 382 125 400 95"/>
    <path d="M492 143 C507 172 515 188 488 195 C471 182 478 167 492 143"/>
    <path d="M585 242 C596 268 603 284 576 290 C562 274 572 258 585 242"/>
    <path d="M638 355 C646 382 648 398 622 400 C615 385 625 370 638 355"/>
    <path d="M638 445 C646 418 648 402 622 400 C615 415 625 430 638 445"/>
    <path d="M585 558 C596 532 603 516 576 510 C562 526 572 542 585 558"/>
    <path d="M492 657 C507 628 515 612 488 605 C471 618 478 633 492 657"/>
    <path d="M400 705 C418 675 428 658 400 650 C372 658 382 675 400 705"/>
    <path d="M308 657 C293 628 285 612 312 605 C329 618 322 633 308 657"/>
    <path d="M215 558 C204 532 197 516 224 510 C238 526 228 542 215 558"/>
    <path d="M162 445 C154 418 152 402 178 400 C185 415 175 430 162 445"/>
    <path d="M162 355 C154 382 152 398 178 400 C185 385 175 370 162 355"/>
    <path d="M215 242 C204 268 197 284 224 290 C238 274 228 258 215 242"/>
    <path d="M308 143 C293 172 285 188 312 195 C329 182 322 167 308 143"/>
  </g>

  <!-- Concentric rings -->
  <circle cx="400" cy="400" r="280" fill="none" stroke="#A97808" stroke-width="0.8" opacity="0.25"/>
  <circle cx="400" cy="400" r="230" fill="none" stroke="#D9A928" stroke-width="0.6" opacity="0.2"/>
  <circle cx="400" cy="400" r="180" fill="none" stroke="#A97808" stroke-width="0.8" opacity="0.25"/>
  <circle cx="400" cy="400" r="130" fill="none" stroke="#D9A928" stroke-width="0.6" opacity="0.2"/>
  <circle cx="400" cy="400" r="80" fill="none" stroke="#A97808" stroke-width="0.7" opacity="0.25"/>
  <circle cx="400" cy="400" r="35" fill="none" stroke="#D9A928" stroke-width="0.5" opacity="0.2"/>

  <!-- 8-point star -->
  <g fill="none" stroke="#6F1028" stroke-width="0.6" opacity="0.18">
    <polygon points="400,135 438,185 400,235 362,185"/>
    <polygon points="535,268 568,305 535,342 502,305"/>
    <polygon points="632,400 658,438 632,476 606,438"/>
    <polygon points="535,532 568,495 535,458 502,495"/>
    <polygon points="400,665 438,615 400,565 362,615"/>
    <polygon points="265,532 232,495 265,458 298,495"/>
    <polygon points="168,400 142,438 168,476 194,438"/>
    <polygon points="265,268 232,305 265,342 298,305"/>
  </g>

  <!-- Gold dots -->
  <g fill="#D9A928" opacity="0.2">
    <circle cx="400" cy="165" r="4"/>
    <circle cx="400" cy="635" r="4"/>
    <circle cx="165" cy="400" r="4"/>
    <circle cx="635" cy="400" r="4"/>
    <circle cx="400" cy="240" r="3"/>
    <circle cx="400" cy="560" r="3"/>
    <circle cx="240" cy="400" r="3"/>
    <circle cx="560" cy="400" r="3"/>
    <circle cx="240" cy="240" r="3"/>
    <circle cx="560" cy="240" r="3"/>
    <circle cx="240" cy="560" r="3"/>
    <circle cx="560" cy="560" r="3"/>
  </g>

  <!-- Center flower -->
  <circle cx="400" cy="400" r="8" fill="#D9A928" opacity="0.25"/>
  <circle cx="400" cy="400" r="16" fill="none" stroke="#6F1028" stroke-width="0.6" opacity="0.2"/>
  <circle cx="400" cy="400" r="3" fill="#A97808" opacity="0.3"/>
</svg>
