<svg xmlns="http://www.w3.org/2000/svg" viewBox="0 0 800 800" width="800" height="800">
  <circle cx="400" cy="400" r="380" fill="none" stroke="#D4A853" stroke-width="4"/>
  <circle cx="400" cy="400" r="370" fill="none" stroke="#D4A853" stroke-width="2"/>
  <circle cx="400" cy="400" r="200" fill="none" stroke="#D4A853" stroke-width="3"/>
  <circle cx="400" cy="400" r="100" fill="none" stroke="#D4A853" stroke-width="2"/>
  <circle cx="400" cy="400" r="30" fill="#D4A853" opacity="0.4"/>
  <g fill="none" stroke="#D4A853" stroke-width="2">
    <ellipse cx="400" cy="100" rx="30" ry="80" transform="rotate(0 400 400)"/>
    <ellipse cx="400" cy="100" rx="30" ry="80" transform="rotate(45 400 400)"/>
    <ellipse cx="400" cy="100" rx="30" ry="80" transform="rotate(90 400 400)"/>
    <ellipse cx="400" cy="100" rx="30" ry="80" transform="rotate(135 400 400)"/>
    <ellipse cx="400" cy="100" rx="30" ry="80" transform="rotate(180 400 400)"/>
    <ellipse cx="400" cy="100" rx="30" ry="80" transform="rotate(225 400 400)"/>
    <ellipse cx="400" cy="100" rx="30" ry="80" transform="rotate(270 400 400)"/>
    <ellipse cx="400" cy="100" rx="30" ry="80" transform="rotate(315 400 400)"/>
  </g>
</svg>