<?xml version="1.0" encoding="UTF-8"?>
<svg version="1.1" viewBox="-500 -500 1000 1000" xmlns="http://www.w3.org/2000/svg" xmlns:xlink="http://www.w3.org/1999/xlink">
  <g fill="#6F1028" opacity="0.06">
    <path d="m-48.5-155.64c14.89 12.034 27.207 26.825 41.373 39.652 4.9427 4.8291 9.8328 9.756 14 15.285 3.2898 6.6797-13.432 7.596-6.0943 1.4731 4.6928-8.0895-9.2283-6.5256-7.9848-0.65831-7.1158-2.8946-10.086-11.448-16.631-15.575-8.7105-8.7649-17.453-17.498-26.166-26.261l-41.73 41.728c29.432 30.19 59.312 59.939 88.786 90.088 1.6894 2.8889 9.0528 5.7851 4.2009 8.6591-1.8333 0.97597-3.6604 5.5007-5.4982 3.9251-33.42-33.19-66.97-66.23-100.27-99.52-2.1106-9.0202 7.9566-13.267 12.749-19.034 12.444-13.32 25.594-25.95 38.419-38.896 1.3896-0.96621 3.2015-1.2907 4.841-0.873z"/>
    <path d="m0.61-349.58c31.302 25.867 72.718 32.118 111.28 39.884 24.805 4.1368 48.436 18.505 61.995 39.87 5.9082 10.644 3.6143 25.046-6.3212 32.422-10.24 8.5047-23.03 13.227-33.144 21.949-18.472 13.135-38.904 27.711-62.667 26.669-14.739-2.183-29.705-1.7751-44.344 0.90517-12.151 1.5672-26.272 3.5808-36.759-4.1953-5.9133-5.8718-9.548-24.153 3.1024-22.846 27.779 1.4241 55.383 8.4231 83.342 6.195 20.364-1.9196 42.934-9.5885 53.784-28.197 4.7103-15.575-17.658-7.2641-24.197-14.821-13.066-10.612-16.735-30.789-33.461-37.119-13.153-2.4017-22.715 8.8117-33.615 13.954-20.191 12.095-40.97 27.249-65.555 26.999-9.6038-0.74012-23.137-4.5352-23.53-16.186-0.42764-28.629 0.12643-57.271-0.0948-85.905 16.728 0.28039 33.473-0.56182 50.187 0.423z"/>
    <path d="m5.05-499.74c34.038 1.8666 55.946 45.458 38.514 74.322-8.9521 13.414-23.491 25.916-40.624 24.499-12.279-4.4109-14.802-19.751-26.05-25.794-8.1973-7.2061-21.387-12.964-31.201-5.4379-16.426 11.24-25.498 29.867-40.654 42.469-12.813 5.4956-25.858-3.4927-34.83-12.054-8.0599-8.2573-19.776-17.304-31.82-11.751-12.48 4.0807-22.964 14.06-36.597 14.44-4.8614-10.458 4.1154-20.039 10.502-27.408 11.323-13.559 14.457-33.88 31.017-42.922 10.394-6.0765 23.193 1.0756 26.996 11.646 7.5815 13.274 14.687 29.694 30.217 35.07 13.984 0.48155 19.913-15.717 30.969-21.853 11.087-9.7937 18.856-23.975 33.623-28.878 15.48-5.561 23.29-23.21 39.94-26.355z"/>
    <path d="m40.21-81.38c2.5509 2.5442-1.917 4.56-3.8287 5.5663-8.2738 5.3473-16.434 10.867-24.677 16.262 3.1597 6.3193 6.3193 12.639 9.479 18.958-1.0469 3.1485-4.9385 1.3977-7.342 1.7634-4.6527 0.0778-9.3056-0.0202-13.958-0.0422-1.3114-3.5942 4.2661-2.5708 6.2826-2.285 3.5048-0.0826 7.0073-0.0578 10.51-0.0475 2.526-0.41037-1.1576-3.7258-1.3847-5.3951-2.1887-4.3331-4.382-8.664-6.5435-13.011 0.96882-3.064 4.665-3.6518 6.7962-5.6903 8.0797-5.3513 15.952-11.022 24.234-16.063l0.43273-0.0158z"/>
  </g>
</svg>
