<svg xmlns="http://www.w3.org/2000/svg" width="800" height="800" viewBox="0 0 800 800">
  <!-- Outer decorative border -->
  <circle cx="400" cy="400" r="385" fill="none" stroke="#A97808" stroke-width="1.2" opacity="0.45"/>
  <circle cx="400" cy="400" r="375" fill="none" stroke="#D9A928" stroke-width="0.8" opacity="0.35"/>
  <circle cx="400" cy="400" r="360" fill="none" stroke="#6F1028" stroke-width="0.6" opacity="0.25"/>

  <!-- Flowing border vines (16 curves) -->
  <g fill="none" stroke="#A97808" stroke-width="0.8" opacity="0.3">
    <path d="M400 20 Q420 35 415 50 Q410 65 400 55 Q390 65 385 50 Q380 35 400 20"/>
    <path d="M520 78 Q535 95 528 110 Q520 125 510 112 Q500 125 492 110 Q485 95 520 78"/>
    <path d="M640 168 Q652 185 642 200 Q632 215 625 200 Q618 215 608 200 Q598 185 640 168"/>
    <path d="M710 290 Q720 308 710 322 Q700 338 695 322 Q688 338 678 322 Q668 308 710 290"/>
    <path d="M720 420 Q730 435 720 448 Q710 462 705 448 Q698 462 690 448 Q680 435 720 420"/>
    <path d="M710 548 Q720 565 710 580 Q700 595 695 580 Q688 595 678 580 Q668 565 710 548"/>
    <path d="M640 668 Q652 685 642 700 Q632 715 625 700 Q618 715 608 700 Q598 685 640 668"/>
    <path d="M520 758 Q535 775 528 790 Q520 805 510 792 Q500 805 492 790 Q485 775 520 758"/>
    <path d="M400 780 Q420 795 415 810 Q410 825 400 815 Q390 825 385 810 Q380 795 400 780"/>
    <path d="M280 758 Q265 775 272 790 Q280 805 290 792 Q300 805 308 790 Q315 775 280 758"/>
    <path d="M160 668 Q148 685 158 700 Q168 715 175 700 Q182 715 192 700 Q202 685 160 668"/>
    <path d="M90 548 Q80 565 90 580 Q100 595 105 580 Q112 595 122 580 Q132 565 90 548"/>
    <path d="M80 420 Q70 435 80 448 Q90 462 95 448 Q102 462 110 448 Q120 435 80 420"/>
    <path d="M90 290 Q80 308 90 322 Q100 338 105 322 Q112 338 122 322 Q132 308 90 290"/>
    <path d="M160 168 Q148 185 158 200 Q168 215 175 200 Q182 215 192 200 Q202 185 160 168"/>
    <path d="M280 78 Q265 95 272 110 Q280 125 290 112 Q300 125 308 110 Q315 95 280 78"/>
  </g>

  <!-- Flowing large lotus petals -->
  <g fill="none" stroke="#6F1028" stroke-width="0.9" opacity="0.3">
    <path d="M400 45 C430 75 455 95 440 130 C425 165 400 145 400 145 C400 145 375 165 360 130 C345 95 370 75 400 45"/>
    <path d="M530 105 C555 135 575 155 558 185 C540 215 518 198 518 198 C518 198 498 215 480 185 C462 155 505 135 530 105"/>
    <path d="M650 210 C670 240 685 260 665 290 C645 320 625 305 625 305 C625 305 605 320 585 290 C565 260 610 240 650 210"/>
    <path d="M715 340 C732 370 740 390 718 418 C695 445 678 432 678 432 C678 432 660 445 638 418 C615 390 658 370 715 340"/>
    <path d="M715 460 C732 430 740 410 718 382 C695 355 678 368 678 368 C678 368 660 355 638 382 C615 410 658 430 715 460"/>
    <path d="M650 590 C670 560 685 540 665 510 C645 480 625 495 625 495 C625 495 605 480 585 510 C565 540 610 560 650 590"/>
    <path d="M530 695 C555 665 575 645 558 615 C540 585 518 602 518 602 C518 602 498 585 480 615 C462 645 505 665 530 695"/>
    <path d="M400 755 C430 725 455 705 440 670 C425 635 400 655 400 655 C400 655 375 635 360 670 C345 705 370 725 400 755"/>
    <path d="M270 695 C245 665 225 645 242 615 C260 585 282 602 282 602 C282 602 302 585 320 615 C338 645 295 665 270 695"/>
    <path d="M150 590 C130 560 115 540 135 510 C155 480 175 495 175 495 C175 495 195 480 215 510 C235 540 190 560 150 590"/>
    <path d="M85 460 C68 430 60 410 82 382 C105 355 122 368 122 368 C122 368 140 355 162 382 C185 410 142 430 85 460"/>
    <path d="M85 340 C68 370 60 390 82 418 C105 445 122 432 122 432 C122 432 140 445 162 418 C185 390 142 370 85 340"/>
    <path d="M150 210 C130 240 115 260 135 290 C155 320 175 305 175 305 C175 305 195 320 215 290 C235 260 190 240 150 210"/>
    <path d="M270 105 C245 135 225 155 242 185 C260 215 282 198 282 198 C282 198 302 215 320 185 C338 155 295 135 270 105"/>
  </g>

  <!-- Intermediate floral ring (flowy) -->
  <g fill="none" stroke="#D9A928" stroke-width="0.7" opacity="0.3">
    <path d="M400 90 Q420 115 410 135 Q400 155 390 135 Q380 115 400 90"/>
    <path d="M485 135 Q502 158 492 175 Q482 192 472 175 Q462 158 485 135"/>
    <path d="M570 228 Q585 250 575 268 Q565 285 555 268 Q545 250 570 228"/>
    <path d="M625 340 Q638 360 628 378 Q618 395 608 378 Q598 360 625 340"/>
    <path d="M625 460 Q638 440 628 422 Q618 405 608 422 Q598 440 625 460"/>
    <path d="M570 572 Q585 550 575 532 Q565 515 555 532 Q545 550 570 572"/>
    <path d="M485 665 Q502 642 492 625 Q482 608 472 625 Q462 642 485 665"/>
    <path d="M400 710 Q420 685 410 665 Q400 645 390 665 Q380 685 400 710"/>
    <path d="M315 665 Q298 642 308 625 Q318 608 328 625 Q338 642 315 665"/>
    <path d="M230 572 Q215 550 225 532 Q235 515 245 532 Q255 550 230 572"/>
    <path d="M175 460 Q162 440 172 422 Q182 405 192 422 Q202 440 175 460"/>
    <path d="M175 340 Q162 360 172 378 Q182 395 192 378 Q202 360 175 340"/>
    <path d="M230 228 Q215 250 225 268 Q235 285 245 268 Q255 250 230 228"/>
    <path d="M315 135 Q298 158 308 175 Q318 192 328 175 Q338 158 315 135"/>
  </g>

  <!-- Decorative arch patterns (flowy curves between petals) -->
  <g fill="none" stroke="#A97808" stroke-width="0.6" opacity="0.2">
    <path d="M440 68 Q475 88 490 110"/>
    <path d="M500 110 Q530 130 542 148"/>
    <path d="M558 148 Q590 168 600 195"/>
    <path d="M605 230 Q630 255 638 278"/>
    <path d="M638 320 Q655 345 655 370"/>
    <path d="M655 430 Q655 455 638 480"/>
    <path d="M638 522 Q630 545 605 570"/>
    <path d="M600 605 Q590 632 558 652"/>
    <path d="M542 652 Q530 670 500 690"/>
    <path d="M490 690 Q475 712 440 732"/>
    <path d="M360 732 Q325 712 310 690"/>
    <path d="M300 690 Q270 670 258 652"/>
    <path d="M242 652 Q210 632 200 605"/>
    <path d="M195 570 Q170 545 162 522"/>
    <path d="M162 480 Q145 455 145 430"/>
    <path d="M145 370 Q145 345 162 320"/>
    <path d="M162 278 Q170 255 195 230"/>
    <path d="M200 195 Q210 168 242 148"/>
    <path d="M258 148 Q270 130 300 110"/>
    <path d="M310 110 Q325 88 360 68"/>
  </g>

  <!-- Concentric rings -->
  <circle cx="400" cy="400" r="295" fill="none" stroke="#A97808" stroke-width="0.7" opacity="0.3"/>
  <circle cx="400" cy="400" r="250" fill="none" stroke="#D9A928" stroke-width="0.6" opacity="0.25"/>
  <circle cx="400" cy="400" r="200" fill="none" stroke="#6F1028" stroke-width="0.5" opacity="0.2"/>
  <circle cx="400" cy="400" r="155" fill="none" stroke="#A97808" stroke-width="0.7" opacity="0.3"/>
  <circle cx="400" cy="400" r="110" fill="none" stroke="#D9A928" stroke-width="0.6" opacity="0.25"/>
  <circle cx="400" cy="400" r="70" fill="none" stroke="#6F1028" stroke-width="0.5" opacity="0.2"/>
  <circle cx="400" cy="400" r="40" fill="none" stroke="#A97808" stroke-width="0.6" opacity="0.3"/>

  <!-- Inner star-burst pattern (12 points) -->
  <g fill="none" stroke="#D9A928" stroke-width="0.6" opacity="0.2">
    <path d="M400 60 L400 100"/>
    <path d="M470 75 L450 110"/>
    <path d="M530 112 L500 138"/>
    <path d="M578 165 L542 182"/>
    <path d="M610 228 L575 235"/>
    <path d="M625 298 L590 295"/>
    <path d="M625 370 L590 365"/>
    <path d="M625 430 L590 435"/>
    <path d="M610 502 L575 495"/>
    <path d="M578 572 L542 555"/>
    <path d="M530 635 L500 610"/>
    <path d="M470 688 L450 655"/>
    <path d="M400 725 L400 690"/>
    <path d="M330 688 L350 655"/>
    <path d="M270 635 L300 610"/>
    <path d="M222 572 L258 555"/>
    <path d="M190 502 L225 495"/>
    <path d="M175 430 L210 435"/>
    <path d="M175 370 L210 365"/>
    <path d="M190 298 L225 295"/>
    <path d="M222 228 L258 235"/>
    <path d="M270 165 L300 182"/>
    <path d="M330 112 L350 138"/>
    <path d="M470 75 L450 110"/>
  </g>

  <!-- Flowing vine pattern (Bengali Alpona style) -->
  <g fill="none" stroke="#6F1028" stroke-width="0.5" opacity="0.15">
    <path d="M400 155 Q420 170 415 185 Q410 200 395 195 Q380 190 385 175 Q390 160 400 155"/>
    <path d="M465 172 Q482 185 478 200 Q474 215 460 210 Q448 205 452 190 Q456 178 465 172"/>
    <path d="M530 225 Q545 238 540 252 Q535 268 520 262 Q508 258 512 242 Q516 230 530 225"/>
    <path d="M570 295 Q585 308 580 322 Q575 338 560 332 Q548 328 552 312 Q556 300 570 295"/>
    <path d="M570 505 Q585 492 580 478 Q575 462 560 468 Q548 472 552 488 Q556 500 570 505"/>
    <path d="M530 575 Q545 562 540 548 Q535 532 520 538 Q508 542 512 558 Q516 570 530 575"/>
    <path d="M465 628 Q482 615 478 600 Q474 585 460 590 Q448 595 452 610 Q456 622 465 628"/>
    <path d="M400 645 Q420 630 415 615 Q410 600 395 605 Q380 610 385 625 Q390 640 400 645"/>
    <path d="M335 628 Q318 615 322 600 Q326 585 340 590 Q352 595 348 610 Q344 622 335 628"/>
    <path d="M270 575 Q255 562 260 548 Q265 532 280 538 Q292 542 288 558 Q284 570 270 575"/>
    <path d="M230 505 Q215 492 220 478 Q225 462 240 468 Q252 472 248 488 Q244 500 230 505"/>
    <path d="M230 295 Q215 308 220 322 Q225 338 240 332 Q252 328 248 312 Q244 300 230 295"/>
    <path d="M270 225 Q255 238 260 252 Q265 268 280 262 Q292 258 288 242 Q284 230 270 225"/>
    <path d="M335 172 Q318 185 322 200 Q326 215 340 210 Q352 205 348 190 Q344 178 335 172"/>
  </g>

  <!-- Small decorative dots -->
  <g fill="#D9A928" opacity="0.25">
    <circle cx="400" cy="145" r="3.5"/>
    <circle cx="400" cy="655" r="3.5"/>
    <circle cx="145" cy="400" r="3.5"/>
    <circle cx="655" cy="400" r="3.5"/>
    <circle cx="320" cy="185" r="2.5"/>
    <circle cx="480" cy="185" r="2.5"/>
    <circle cx="320" cy="615" r="2.5"/>
    <circle cx="480" cy="615" r="2.5"/>
    <circle cx="215" cy="320" r="2.5"/>
    <circle cx="215" cy="480" r="2.5"/>
    <circle cx="585" cy="320" r="2.5"/>
    <circle cx="585" cy="480" r="2.5"/>
  </g>

  <!-- Diagonal dots -->
  <g fill="#A97808" opacity="0.2">
    <circle cx="250" cy="250" r="3"/>
    <circle cx="550" cy="250" r="3"/>
    <circle cx="250" cy="550" r="3"/>
    <circle cx="550" cy="550" r="3"/>
    <circle cx="305" cy="305" r="2"/>
    <circle cx="495" cy="305" r="2"/>
    <circle cx="305" cy="495" r="2"/>
    <circle cx="495" cy="495" r="2"/>
  </g>

  <!-- Center lotus -->
  <circle cx="400" cy="400" r="22" fill="none" stroke="#A97808" stroke-width="0.8" opacity="0.35"/>
  <circle cx="400" cy="400" r="14" fill="none" stroke="#D9A928" stroke-width="0.6" opacity="0.3"/>
  <g fill="none" stroke="#6F1028" stroke-width="0.6" opacity="0.2">
    <path d="M400 378 Q408 390 400 400 Q392 390 400 378"/>
    <path d="M400 422 Q408 410 400 400 Q392 410 400 422"/>
    <path d="M378 400 Q390 408 400 400 Q390 392 378 400"/>
    <path d="M422 400 Q410 408 400 400 Q410 392 422 400"/>
  </g>
  <circle cx="400" cy="400" r="5" fill="#D9A928" opacity="0.4"/>
  <circle cx="400" cy="400" r="2" fill="#6F1028" opacity="0.3"/>
</svg>
